# xmcd
#
# Track frame offsets: 
#        150
#        17008
#        36193
#        58138
#        75137
#        96367
#        112869
#        135300
#        161033
#
# Disc length: 2411 seconds
#
# Revision: 0
# Processed by: cddbd v1.5.2PL0 Copyright (c) Steve Scherf et al.
# Submitted via: ExactAudioCopy v0.90b4
#
DISCID=63096909
DTITLE=The Fat Tones - Fifty Bucks And Free Beer
DYEAR=2007
DGENRE=Blues
TTITLE0=Fifty Bucks And Free Beer
TTITLE1=Plain Jane
TTITLE2=Stay With Me
TTITLE3=Through And Through
TTITLE4=Boppin'
TTITLE5=What You Do To Me
TTITLE6=Blood Of The Earth
TTITLE7=The Song
TTITLE8=Don't Get Me Started
EXTD=
EXTT0=
EXTT1=
EXTT2=
EXTT3=
EXTT4=
EXTT5=
EXTT6=
EXTT7=
EXTT8=
PLAYORDER=
